<svg width="48" height="48" viewBox="0 0 48 48" fill="none" xmlns="http://www.w3.org/2000/svg">
  <rect width="48" height="48" rx="12" fill="#25D366"/>
  <path d="M24 12C17.373 12 12 17.373 12 24c0 2.13.624 4.11 1.7 5.78L12 36l6.44-1.67A12 12 0 1 0 24 12zm0 21.6c-1.98 0-3.9-.54-5.56-1.56l-.4-.24-3.82 1 1.02-3.72-.26-.38A9.6 9.6 0 1 1 24 33.6zm5.26-7.18c-.29-.15-1.7-.84-1.96-.94-.26-.1-.45-.15-.64.15-.19.29-.74.94-.9 1.13-.17.19-.33.21-.62.07-.29-.15-1.22-.45-2.33-1.43-.86-.77-1.44-1.72-1.61-2.01-.17-.29-.02-.45.13-.6.13-.13.29-.33.43-.5.14-.17.19-.29.29-.48.1-.19.05-.36-.02-.5-.07-.15-.64-1.54-.88-2.11-.23-.56-.47-.48-.64-.49-.17-.01-.36-.01-.56-.01-.19 0-.5.07-.76.36-.26.29-1 1-.99 2.43.01 1.43 1.03 2.81 1.18 3.01.15.19 2.03 3.1 5.01 4.23.7.24 1.25.38 1.68.48.71.15 1.36.13 1.87.08.57-.06 1.7-.7 1.94-1.37.24-.67.24-1.25.17-1.37-.07-.12-.26-.19-.55-.34z" fill="#fff"/>
</svg>
